<?xml version="1.0" encoding="UTF-8"?>
<!--Generator: Apple Native CoreSVG 341-->
<!DOCTYPE svg
PUBLIC "-//W3C//DTD SVG 1.1//EN"
       "http://www.w3.org/Graphics/SVG/1.1/DTD/svg11.dtd">
<svg version="1.1" xmlns="http://www.w3.org/2000/svg" xmlns:xlink="http://www.w3.org/1999/xlink" viewBox="0 0 3300 2200">
 <!--glyph: "", point size: 100.0, font version: "21.1d1e1", template writer version: "138.0.0"-->
 <style>.defaults {-sfsymbols-variable-value-mode:color;-sfsymbols-draw-reverses-motion-groups:true}

.monochrome-0 {-sfsymbols-motion-group:0;-sfsymbols-layer-tags:-49a68f3c9880619b}

.multicolor-0:tintColor {-sfsymbols-motion-group:0;-sfsymbols-layer-tags:-49a68f3c9880619b}

.hierarchical-0:primary {-sfsymbols-motion-group:0;-sfsymbols-layer-tags:-49a68f3c9880619b}

.SFSymbolsPreviewWireframe {fill:none;opacity:1.0;stroke:black;stroke-width:0.5}
</style>
 <g id="Notes">
  <rect height="2200" id="artboard" style="fill:white;opacity:1" width="3300" x="0" y="0"/>
  <line style="fill:none;stroke:black;opacity:1;stroke-width:0.5;" x1="263" x2="3036" y1="292" y2="292"/>
  <text style="stroke:none;fill:black;font-family:sans-serif;font-size:13;font-weight:bold;" transform="matrix(1 0 0 1 263 322)">Weight/Scale Variations</text>
  <text style="stroke:none;fill:black;font-family:sans-serif;font-size:13;text-anchor:middle;" transform="matrix(1 0 0 1 559.711 322)">Ultralight</text>
  <text style="stroke:none;fill:black;font-family:sans-serif;font-size:13;text-anchor:middle;" transform="matrix(1 0 0 1 856.422 322)">Thin</text>
  <text style="stroke:none;fill:black;font-family:sans-serif;font-size:13;text-anchor:middle;" transform="matrix(1 0 0 1 1153.13 322)">Light</text>
  <text style="stroke:none;fill:black;font-family:sans-serif;font-size:13;text-anchor:middle;" transform="matrix(1 0 0 1 1449.84 322)">Regular</text>
  <text style="stroke:none;fill:black;font-family:sans-serif;font-size:13;text-anchor:middle;" transform="matrix(1 0 0 1 1746.56 322)">Medium</text>
  <text style="stroke:none;fill:black;font-family:sans-serif;font-size:13;text-anchor:middle;" transform="matrix(1 0 0 1 2043.27 322)">Semibold</text>
  <text style="stroke:none;fill:black;font-family:sans-serif;font-size:13;text-anchor:middle;" transform="matrix(1 0 0 1 2339.98 322)">Bold</text>
  <text style="stroke:none;fill:black;font-family:sans-serif;font-size:13;text-anchor:middle;" transform="matrix(1 0 0 1 2636.69 322)">Heavy</text>
  <text style="stroke:none;fill:black;font-family:sans-serif;font-size:13;text-anchor:middle;" transform="matrix(1 0 0 1 2933.4 322)">Black</text>
  <line style="fill:none;stroke:black;opacity:1;stroke-width:0.5;" x1="263" x2="3036" y1="1903" y2="1903"/>
  <g transform="matrix(0.2 0 0 0.2 263 1933)">
   <path d="m46.2402 4.15039c21.7773 0 39.4531-17.627 39.4531-39.4043s-17.6758-39.4043-39.4531-39.4043c-21.7285 0-39.4043 17.627-39.4043 39.4043s17.6758 39.4043 39.4043 39.4043Zm0-7.42188c-17.6758 0-31.9336-14.3066-31.9336-31.9824s14.2578-31.9824 31.9336-31.9824 31.9824 14.3066 31.9824 31.9824-14.3066 31.9824-31.9824 31.9824Zm3.61328-17.7734v-28.4668c0-2.24609-1.46484-3.75977-3.71094-3.75977-2.14844 0-3.61328 1.51367-3.61328 3.75977v28.4668c0 2.19727 1.46484 3.71094 3.61328 3.71094 2.24609 0 3.71094-1.51367 3.71094-3.71094Zm-17.8223-10.5957h28.418c2.19727 0 3.71094-1.46484 3.71094-3.61328 0-2.19727-1.51367-3.71094-3.71094-3.71094h-28.418c-2.24609 0-3.75977 1.51367-3.75977 3.71094 0 2.14844 1.51367 3.61328 3.75977 3.61328Z"/>
  </g>
  <g transform="matrix(0.2 0 0 0.2 281.506 1933)">
   <path d="m58.5449 14.5508c27.4902 0 49.8047-22.3145 49.8047-49.8047s-22.3145-49.8047-49.8047-49.8047-49.8047 22.3145-49.8047 49.8047 22.3145 49.8047 49.8047 49.8047Zm0-8.30078c-22.9492 0-41.5039-18.5547-41.5039-41.5039s18.5547-41.5039 41.5039-41.5039 41.5039 18.5547 41.5039 41.5039-18.5547 41.5039-41.5039 41.5039Zm4.05273-23.0957v-36.9141c0-2.49023-1.70898-4.19922-4.15039-4.19922-2.39258 0-4.05273 1.70898-4.05273 4.19922v36.9141c0 2.44141 1.66016 4.15039 4.05273 4.15039 2.44141 0 4.15039-1.66016 4.15039-4.15039Zm-22.5586-14.4043h36.9629c2.44141 0 4.15039-1.61133 4.15039-4.00391 0-2.44141-1.70898-4.15039-4.15039-4.15039h-36.9629c-2.49023 0-4.15039 1.70898-4.15039 4.15039 0 2.39258 1.66016 4.00391 4.15039 4.00391Z"/>
  </g>
  <g transform="matrix(0.2 0 0 0.2 304.924 1933)">
   <path d="m74.8535 28.3203c35.1074 0 63.623-28.4668 63.623-63.5742s-28.5156-63.623-63.623-63.623-63.5742 28.5156-63.5742 63.623 28.4668 63.5742 63.5742 63.5742Zm0-9.08203c-30.127 0-54.4922-24.3652-54.4922-54.4922s24.3652-54.4922 54.4922-54.4922 54.4922 24.3652 54.4922 54.4922-24.3652 54.4922-54.4922 54.4922Zm4.44336-30.3223v-48.4863c0-2.73438-1.85547-4.63867-4.54102-4.63867-2.58789 0-4.44336 1.9043-4.44336 4.63867v48.4863c0 2.68555 1.85547 4.58984 4.44336 4.58984 2.68555 0 4.54102-1.85547 4.54102-4.58984Zm-28.7109-19.7754h48.4863c2.68555 0 4.58984-1.80664 4.58984-4.39453 0-2.73438-1.85547-4.58984-4.58984-4.58984h-48.4863c-2.73438 0-4.58984 1.85547-4.58984 4.58984 0 2.58789 1.85547 4.39453 4.58984 4.39453Z"/>
  </g>
  <text style="stroke:none;fill:black;font-family:sans-serif;font-size:13;font-weight:bold;" transform="matrix(1 0 0 1 263 1953)">Design Variations</text>
  <text style="stroke:none;fill:black;font-family:sans-serif;font-size:13;" transform="matrix(1 0 0 1 263 1971)">Symbols are supported in up to nine weights and three scales.</text>
  <text style="stroke:none;fill:black;font-family:sans-serif;font-size:13;" transform="matrix(1 0 0 1 263 1989)">For optimal layout with text and other symbols, vertically align</text>
  <text style="stroke:none;fill:black;font-family:sans-serif;font-size:13;" transform="matrix(1 0 0 1 263 2007)">symbols with the adjacent text.</text>
  <line style="fill:none;stroke:#00AEEF;stroke-width:0.5;opacity:1.0;" x1="776" x2="776" y1="1919" y2="1933"/>
  <g transform="matrix(0.2 0 0 0.2 776 1933)">
   <path d="m16.5527 0.78125c2.58789 0 3.85742-0.976562 4.78516-3.71094l20.5566-57.5195h0.244141l20.6055 57.5195c0.927734 2.73438 2.19727 3.71094 4.73633 3.71094 2.58789 0 4.24805-1.5625 4.24805-4.00391 0-0.830078-0.146484-1.61133-0.537109-2.63672l-22.9004-60.9863c-1.12305-2.97852-3.125-4.49219-6.25-4.49219-3.02734 0-5.07812 1.46484-6.15234 4.44336l-22.9004 61.084c-0.390625 1.02539-0.537109 1.80664-0.537109 2.63672 0 2.44141 1.5625 3.95508 4.10156 3.95508Zm10.2051-20.9473h30.6641c2.00195 0 3.66211-1.66016 3.66211-3.66211 0-2.05078-1.66016-3.66211-3.66211-3.66211h-30.6641c-2.00195 0-3.66211 1.61133-3.66211 3.66211 0 2.00195 1.66016 3.66211 3.66211 3.66211Z"/>
  </g>
  <line style="fill:none;stroke:#00AEEF;stroke-width:0.5;opacity:1.0;" x1="792.836" x2="792.836" y1="1919" y2="1933"/>
  <text style="stroke:none;fill:black;font-family:sans-serif;font-size:13;font-weight:bold;" transform="matrix(1 0 0 1 776 1953)">Margins</text>
  <text style="stroke:none;fill:black;font-family:sans-serif;font-size:13;" transform="matrix(1 0 0 1 776 1971)">Leading and trailing margins on the left and right side of each symbol</text>
  <text style="stroke:none;fill:black;font-family:sans-serif;font-size:13;" transform="matrix(1 0 0 1 776 1989)">can be adjusted by modifying the x-location of the margin guidelines.</text>
  <text style="stroke:none;fill:black;font-family:sans-serif;font-size:13;" transform="matrix(1 0 0 1 776 2007)">Modifications are automatically applied proportionally to all</text>
  <text style="stroke:none;fill:black;font-family:sans-serif;font-size:13;" transform="matrix(1 0 0 1 776 2025)">scales and weights.</text>
  <g transform="matrix(0.2 0 0 0.2 1289 1933)">
   <path d="m14.209 13.1348 7.86133 7.86133c4.29688 4.39453 9.32617 4.10156 13.8672-1.02539l60.6934-68.2129-4.88281-4.88281-60.2539 67.6758c-1.80664 1.95312-3.4668 2.44141-5.81055 0.0976562l-5.17578-5.12695c-2.29492-2.29492-1.80664-3.95508 0.195312-5.81055l67.4805-62.1582-4.88281-4.83398-68.0664 62.5977c-4.98047 4.58984-5.32227 9.47266-1.02539 13.8184Zm44.873-97.4609c-2.05078 2.00195-2.24609 4.88281-1.07422 6.78711 1.12305 1.80664 3.4668 3.02734 6.5918 2.24609 5.85938-1.66016 12.5977-2.39258 18.8965 0.927734l-2.68555 7.12891c-1.61133 4.00391-0.732422 6.88477 1.70898 9.42383l10.2539 10.3027c2.34375 2.39258 4.54102 2.44141 7.08008 1.95312l4.44336-0.732422 2.58789 2.53906-0.195312 2.24609c-0.0976562 2.29492 0.537109 4.29688 2.7832 6.49414l3.36914 3.32031c2.29492 2.29492 5.51758 2.49023 7.8125 0.195312l12.9883-13.0371c2.29492-2.34375 2.14844-5.37109-0.195312-7.66602l-3.41797-3.41797c-2.19727-2.19727-4.05273-3.02734-6.34766-2.88086l-2.34375 0.244141-2.44141-2.44141 1.02539-4.6875c0.634766-2.73438-0.244141-4.98047-2.88086-7.61719l-11.2793-11.1816c-12.9395-12.8418-35.5957-11.0352-46.6797-0.146484Zm7.08008 2.05078c8.78906-6.39648 25.9766-5.66406 33.6914 1.95312l12.3047 12.207c1.02539 1.02539 1.2207 1.80664 0.927734 3.32031l-1.46484 6.64062 6.73828 6.68945 4.39453-0.244141c1.12305-0.0488281 1.51367 0.0488281 2.34375 0.878906l2.53906 2.49023-10.8398 10.8398-2.49023-2.49023c-0.830078-0.878906-0.976562-1.2207-0.927734-2.39258l0.292969-4.3457-6.68945-6.73828-6.83594 1.17188c-1.41602 0.292969-2.05078 0.195312-3.17383-0.878906l-8.93555-8.88672c-1.07422-1.02539-1.17188-1.70898-0.488281-3.36914l4.58984-11.4746c-6.10352-6.34766-17.041-7.51953-25.5859-4.58984-0.683594 0.244141-0.927734-0.390625-0.390625-0.78125Z"/>
  </g>
  <text style="stroke:none;fill:black;font-family:sans-serif;font-size:13;font-weight:bold;" transform="matrix(1 0 0 1 1289 1953)">Exporting</text>
  <text style="stroke:none;fill:black;font-family:sans-serif;font-size:13;" transform="matrix(1 0 0 1 1289 1971)">Symbols should be outlined when exporting to ensure the</text>
  <text style="stroke:none;fill:black;font-family:sans-serif;font-size:13;" transform="matrix(1 0 0 1 1289 1989)">design is preserved when submitting to Xcode.</text>
  <text id="template-version" style="stroke:none;fill:black;font-family:sans-serif;font-size:13;text-anchor:end;" transform="matrix(1 0 0 1 3036 1933)">Template v.7.0</text>
  <text style="stroke:none;fill:black;font-family:sans-serif;font-size:13;text-anchor:end;" transform="matrix(1 0 0 1 3036 1951)">Requires Xcode 26 or greater</text>
  <text id="descriptive-name" style="stroke:none;fill:black;font-family:sans-serif;font-size:13;text-anchor:end;" transform="matrix(1 0 0 1 3036 1969)">Generated from flclash</text>
  <text style="stroke:none;fill:black;font-family:sans-serif;font-size:13;text-anchor:end;" transform="matrix(1 0 0 1 3036 1987)">Typeset at 100.0 points</text>
  <text style="stroke:none;fill:black;font-family:sans-serif;font-size:13;" transform="matrix(1 0 0 1 263 726)">Small</text>
  <text style="stroke:none;fill:black;font-family:sans-serif;font-size:13;" transform="matrix(1 0 0 1 263 1156)">Medium</text>
  <text style="stroke:none;fill:black;font-family:sans-serif;font-size:13;" transform="matrix(1 0 0 1 263 1586)">Large</text>
 </g>
 <g id="Guides">
  <g id="H-reference" style="fill:#27AAE1;stroke:none;" transform="matrix(1 0 0 1 339 696)">
   <path d="M0.993654 0L3.63775 0L29.3281-67.1323L30.0303-67.1323L30.0303-70.459L28.1226-70.459ZM11.6885-24.4799L46.9815-24.4799L46.2315-26.7285L12.4385-26.7285ZM55.1196 0L57.7637 0L30.6382-70.459L29.4326-70.459L29.4326-67.1323Z"/>
  </g>
  <line id="Baseline-S" style="fill:none;stroke:#27AAE1;opacity:1;stroke-width:0.5;" x1="263" x2="3036" y1="696" y2="696"/>
  <line id="Capline-S" style="fill:none;stroke:#27AAE1;opacity:1;stroke-width:0.5;" x1="263" x2="3036" y1="625.541" y2="625.541"/>
  <g id="H-reference" style="fill:#27AAE1;stroke:none;" transform="matrix(1 0 0 1 339 1126)">
   <path d="M0.993654 0L3.63775 0L29.3281-67.1323L30.0303-67.1323L30.0303-70.459L28.1226-70.459ZM11.6885-24.4799L46.9815-24.4799L46.2315-26.7285L12.4385-26.7285ZM55.1196 0L57.7637 0L30.6382-70.459L29.4326-70.459L29.4326-67.1323Z"/>
  </g>
  <line id="Baseline-M" style="fill:none;stroke:#27AAE1;opacity:1;stroke-width:0.5;" x1="263" x2="3036" y1="1126" y2="1126"/>
  <line id="Capline-M" style="fill:none;stroke:#27AAE1;opacity:1;stroke-width:0.5;" x1="263" x2="3036" y1="1055.54" y2="1055.54"/>
  <g id="H-reference" style="fill:#27AAE1;stroke:none;" transform="matrix(1 0 0 1 339 1556)">
   <path d="M0.993654 0L3.63775 0L29.3281-67.1323L30.0303-67.1323L30.0303-70.459L28.1226-70.459ZM11.6885-24.4799L46.9815-24.4799L46.2315-26.7285L12.4385-26.7285ZM55.1196 0L57.7637 0L30.6382-70.459L29.4326-70.459L29.4326-67.1323Z"/>
  </g>
  <line id="Baseline-L" style="fill:none;stroke:#27AAE1;opacity:1;stroke-width:0.5;" x1="263" x2="3036" y1="1556" y2="1556"/>
  <line id="Capline-L" style="fill:none;stroke:#27AAE1;opacity:1;stroke-width:0.5;" x1="263" x2="3036" y1="1485.54" y2="1485.54"/>
  <line id="right-margin-Regular-M" style="fill:none;stroke:#00AEEF;stroke-width:0.5;opacity:1.0;" x1="1478.89" x2="1478.89" y1="1030.79" y2="1150.12"/>
  <line id="left-margin-Regular-M" style="fill:none;stroke:#FF3B30;stroke-width:0.5;opacity:1.0;" x1="1420.79" x2="1420.79" y1="1030.79" y2="1150.12"/>
  <line id="right-margin-Black-S" style="fill:none;stroke:#00AEEF;stroke-width:0.5;opacity:1.0;" x1="2956.36" x2="2956.36" y1="600.785" y2="720.121"/>
  <line id="left-margin-Black-S" style="fill:none;stroke:#FF3B30;stroke-width:0.5;opacity:1.0;" x1="2910.44" x2="2910.44" y1="600.785" y2="720.121"/>
  <line id="right-margin-Regular-S" style="fill:none;stroke:#00AEEF;stroke-width:0.5;opacity:1.0;" x1="1472.81" x2="1472.81" y1="600.785" y2="720.121"/>
  <line id="left-margin-Regular-S" style="fill:none;stroke:#FF3B30;stroke-width:0.5;opacity:1.0;" x1="1426.88" x2="1426.88" y1="600.785" y2="720.121"/>
  <line id="right-margin-Ultralight-S" style="fill:none;stroke:#00AEEF;stroke-width:0.5;opacity:1.0;" x1="582.673" x2="582.673" y1="600.785" y2="720.121"/>
  <line id="left-margin-Ultralight-S" style="fill:none;stroke:#FF3B30;stroke-width:0.5;opacity:1.0;" x1="536.749" x2="536.749" y1="600.785" y2="720.121"/>
 </g>
 <g id="Symbols">
  <g id="Black-L" transform="matrix(1 0 0 1 2896.19 1556)">
   <path class="monochrome-0 multicolor-0:tintColor hierarchical-0:primary SFSymbolsPreviewWireframe" d="M4.09711-53.5904L57.9704-84.6944L57.9704-84.6944C62.9292-87.5576 69.2703-85.8587 72.1335-80.8999C72.1337-80.8994 72.134-80.899 72.1342-80.8986L72.1342-80.8986L72.1342-80.8986C74.9974-75.9397 73.2986-69.5987 68.3397-66.7355C68.3393-66.7352 68.3388-66.735 68.3384-66.7347L14.4651-35.6307L14.4651-35.6307C9.50626-32.7675 3.16524-34.4664 0.302038-39.4252C0.301782-39.4257 0.301525-39.4261 0.301269-39.4266L0.301269-39.4266L0.301269-39.4266C-2.56193-44.3854-0.863072-50.7264 4.09578-53.5896C4.09622-53.5899 4.09666-53.5901 4.09711-53.5904ZM17.9211-29.6461L44.8606-45.1981L44.8606-45.1981C49.8187-48.0577 56.1561-46.3586 59.0187-41.4022L59.0187-41.4022L59.0187-41.4022C61.8832-36.4444 60.1863-30.1031 55.2286-27.2384L28.2891-11.6864L28.2891-11.6864C23.3303-8.8232 16.9892-10.5221 14.126-15.4809C14.1258-15.4814 14.1255-15.4818 14.1253-15.4822L14.1253-15.4822L14.1253-15.4822C11.2621-20.4411 12.9609-26.7821 17.9198-29.6453C17.9202-29.6456 17.9207-29.6458 17.9211-29.6461ZM31.7451-5.70176L31.7451-5.70176L31.7451-5.70176C36.704-8.56496 43.045-6.8661 45.9082-1.90725C45.9084-1.90681 45.9087-1.90636 45.9089-1.90592L45.9089-1.90592L45.9089-1.90592C48.7721 3.05293 47.0733 9.39395 42.1144 12.2572C42.114 12.2574 42.1136 12.2577 42.1131 12.2579L42.1131 12.2579L42.1131 12.2579C37.1543 15.1211 30.8132 13.4223 27.95 8.46341C27.9498 8.46297 27.9495 8.46252 27.9493 8.46208L27.9493 8.46208L27.9493 8.46208C25.0861 3.50323 26.7849-2.83779 31.7438-5.70099C31.7442-5.70125 31.7447-5.7015 31.7451-5.70176Z"/>
  </g>
  <g id="Heavy-L" transform="matrix(1 0 0 1 2599.48 1556)">
   <path class="monochrome-0 multicolor-0:tintColor hierarchical-0:primary SFSymbolsPreviewWireframe" d="M4.09711-53.5904L57.9704-84.6944L57.9704-84.6944C62.9292-87.5576 69.2703-85.8587 72.1335-80.8999C72.1337-80.8994 72.134-80.899 72.1342-80.8986L72.1342-80.8986L72.1342-80.8986C74.9974-75.9397 73.2986-69.5987 68.3397-66.7355C68.3393-66.7352 68.3388-66.735 68.3384-66.7347L14.4651-35.6307L14.4651-35.6307C9.50626-32.7675 3.16524-34.4664 0.302038-39.4252C0.301782-39.4257 0.301525-39.4261 0.301269-39.4266L0.301269-39.4266L0.301269-39.4266C-2.56193-44.3854-0.863072-50.7264 4.09578-53.5896C4.09622-53.5899 4.09666-53.5901 4.09711-53.5904ZM17.9211-29.6461L44.8606-45.1981L44.8606-45.1981C49.8187-48.0577 56.1561-46.3586 59.0187-41.4022L59.0187-41.4022L59.0187-41.4022C61.8832-36.4444 60.1863-30.1031 55.2286-27.2384L28.2891-11.6864L28.2891-11.6864C23.3303-8.8232 16.9892-10.5221 14.126-15.4809C14.1258-15.4814 14.1255-15.4818 14.1253-15.4822L14.1253-15.4822L14.1253-15.4822C11.2621-20.4411 12.9609-26.7821 17.9198-29.6453C17.9202-29.6456 17.9207-29.6458 17.9211-29.6461ZM31.7451-5.70176L31.7451-5.70176L31.7451-5.70176C36.704-8.56496 43.045-6.8661 45.9082-1.90725C45.9084-1.90681 45.9087-1.90636 45.9089-1.90592L45.9089-1.90592L45.9089-1.90592C48.7721 3.05293 47.0733 9.39395 42.1144 12.2572C42.114 12.2574 42.1136 12.2577 42.1131 12.2579L42.1131 12.2579L42.1131 12.2579C37.1543 15.1211 30.8132 13.4223 27.95 8.46341C27.9498 8.46297 27.9495 8.46252 27.9493 8.46208L27.9493 8.46208L27.9493 8.46208C25.0861 3.50323 26.7849-2.83779 31.7438-5.70099C31.7442-5.70125 31.7447-5.7015 31.7451-5.70176Z"/>
  </g>
  <g id="Bold-L" transform="matrix(1 0 0 1 2302.77 1556)">
   <path class="monochrome-0 multicolor-0:tintColor hierarchical-0:primary SFSymbolsPreviewWireframe" d="M4.09711-53.5904L57.9704-84.6944L57.9704-84.6944C62.9292-87.5576 69.2703-85.8587 72.1335-80.8999C72.1337-80.8994 72.134-80.899 72.1342-80.8986L72.1342-80.8986L72.1342-80.8986C74.9974-75.9397 73.2986-69.5987 68.3397-66.7355C68.3393-66.7352 68.3388-66.735 68.3384-66.7347L14.4651-35.6307L14.4651-35.6307C9.50626-32.7675 3.16524-34.4664 0.302038-39.4252C0.301782-39.4257 0.301525-39.4261 0.301269-39.4266L0.301269-39.4266L0.301269-39.4266C-2.56193-44.3854-0.863072-50.7264 4.09578-53.5896C4.09622-53.5899 4.09666-53.5901 4.09711-53.5904ZM17.9211-29.6461L44.8606-45.1981L44.8606-45.1981C49.8187-48.0577 56.1561-46.3586 59.0187-41.4022L59.0187-41.4022L59.0187-41.4022C61.8832-36.4444 60.1863-30.1031 55.2286-27.2384L28.2891-11.6864L28.2891-11.6864C23.3303-8.8232 16.9892-10.5221 14.126-15.4809C14.1258-15.4814 14.1255-15.4818 14.1253-15.4822L14.1253-15.4822L14.1253-15.4822C11.2621-20.4411 12.9609-26.7821 17.9198-29.6453C17.9202-29.6456 17.9207-29.6458 17.9211-29.6461ZM31.7451-5.70176L31.7451-5.70176L31.7451-5.70176C36.704-8.56496 43.045-6.8661 45.9082-1.90725C45.9084-1.90681 45.9087-1.90636 45.9089-1.90592L45.9089-1.90592L45.9089-1.90592C48.7721 3.05293 47.0733 9.39395 42.1144 12.2572C42.114 12.2574 42.1136 12.2577 42.1131 12.2579L42.1131 12.2579L42.1131 12.2579C37.1543 15.1211 30.8132 13.4223 27.95 8.46341C27.9498 8.46297 27.9495 8.46252 27.9493 8.46208L27.9493 8.46208L27.9493 8.46208C25.0861 3.50323 26.7849-2.83779 31.7438-5.70099C31.7442-5.70125 31.7447-5.7015 31.7451-5.70176Z"/>
  </g>
  <g id="Semibold-L" transform="matrix(1 0 0 1 2006.06 1556)">
   <path class="monochrome-0 multicolor-0:tintColor hierarchical-0:primary SFSymbolsPreviewWireframe" d="M4.09711-53.5904L57.9704-84.6944L57.9704-84.6944C62.9292-87.5576 69.2703-85.8587 72.1335-80.8999C72.1337-80.8994 72.134-80.899 72.1342-80.8986L72.1342-80.8986L72.1342-80.8986C74.9974-75.9397 73.2986-69.5987 68.3397-66.7355C68.3393-66.7352 68.3388-66.735 68.3384-66.7347L14.4651-35.6307L14.4651-35.6307C9.50626-32.7675 3.16524-34.4664 0.302038-39.4252C0.301782-39.4257 0.301525-39.4261 0.301269-39.4266L0.301269-39.4266L0.301269-39.4266C-2.56193-44.3854-0.863072-50.7264 4.09578-53.5896C4.09622-53.5899 4.09666-53.5901 4.09711-53.5904ZM17.9211-29.6461L44.8606-45.1981L44.8606-45.1981C49.8187-48.0577 56.1561-46.3586 59.0187-41.4022L59.0187-41.4022L59.0187-41.4022C61.8832-36.4444 60.1863-30.1031 55.2286-27.2384L28.2891-11.6864L28.2891-11.6864C23.3303-8.8232 16.9892-10.5221 14.126-15.4809C14.1258-15.4814 14.1255-15.4818 14.1253-15.4822L14.1253-15.4822L14.1253-15.4822C11.2621-20.4411 12.9609-26.7821 17.9198-29.6453C17.9202-29.6456 17.9207-29.6458 17.9211-29.6461ZM31.7451-5.70176L31.7451-5.70176L31.7451-5.70176C36.704-8.56496 43.045-6.8661 45.9082-1.90725C45.9084-1.90681 45.9087-1.90636 45.9089-1.90592L45.9089-1.90592L45.9089-1.90592C48.7721 3.05293 47.0733 9.39395 42.1144 12.2572C42.114 12.2574 42.1136 12.2577 42.1131 12.2579L42.1131 12.2579L42.1131 12.2579C37.1543 15.1211 30.8132 13.4223 27.95 8.46341C27.9498 8.46297 27.9495 8.46252 27.9493 8.46208L27.9493 8.46208L27.9493 8.46208C25.0861 3.50323 26.7849-2.83779 31.7438-5.70099C31.7442-5.70125 31.7447-5.7015 31.7451-5.70176Z"/>
  </g>
  <g id="Medium-L" transform="matrix(1 0 0 1 1709.34 1556)">
   <path class="monochrome-0 multicolor-0:tintColor hierarchical-0:primary SFSymbolsPreviewWireframe" d="M4.09711-53.5904L57.9704-84.6944L57.9704-84.6944C62.9292-87.5576 69.2703-85.8587 72.1335-80.8999C72.1337-80.8994 72.134-80.899 72.1342-80.8986L72.1342-80.8986L72.1342-80.8986C74.9974-75.9397 73.2986-69.5987 68.3397-66.7355C68.3393-66.7352 68.3388-66.735 68.3384-66.7347L14.4651-35.6307L14.4651-35.6307C9.50626-32.7675 3.16524-34.4664 0.302038-39.4252C0.301782-39.4257 0.301525-39.4261 0.301269-39.4266L0.301269-39.4266L0.301269-39.4266C-2.56193-44.3854-0.863072-50.7264 4.09578-53.5896C4.09622-53.5899 4.09666-53.5901 4.09711-53.5904ZM17.9211-29.6461L44.8606-45.1981L44.8606-45.1981C49.8187-48.0577 56.1561-46.3586 59.0187-41.4022L59.0187-41.4022L59.0187-41.4022C61.8832-36.4444 60.1863-30.1031 55.2286-27.2384L28.2891-11.6864L28.2891-11.6864C23.3303-8.8232 16.9892-10.5221 14.126-15.4809C14.1258-15.4814 14.1255-15.4818 14.1253-15.4822L14.1253-15.4822L14.1253-15.4822C11.2621-20.4411 12.9609-26.7821 17.9198-29.6453C17.9202-29.6456 17.9207-29.6458 17.9211-29.6461ZM31.7451-5.70176L31.7451-5.70176L31.7451-5.70176C36.704-8.56496 43.045-6.8661 45.9082-1.90725C45.9084-1.90681 45.9087-1.90636 45.9089-1.90592L45.9089-1.90592L45.9089-1.90592C48.7721 3.05293 47.0733 9.39395 42.1144 12.2572C42.114 12.2574 42.1136 12.2577 42.1131 12.2579L42.1131 12.2579L42.1131 12.2579C37.1543 15.1211 30.8132 13.4223 27.95 8.46341C27.9498 8.46297 27.9495 8.46252 27.9493 8.46208L27.9493 8.46208L27.9493 8.46208C25.0861 3.50323 26.7849-2.83779 31.7438-5.70099C31.7442-5.70125 31.7447-5.7015 31.7451-5.70176Z"/>
  </g>
  <g id="Regular-L" transform="matrix(1 0 0 1 1412.63 1556)">
   <path class="monochrome-0 multicolor-0:tintColor hierarchical-0:primary SFSymbolsPreviewWireframe" d="M4.09711-53.5904L57.9704-84.6944L57.9704-84.6944C62.9292-87.5576 69.2703-85.8587 72.1335-80.8999C72.1337-80.8994 72.134-80.899 72.1342-80.8986L72.1342-80.8986L72.1342-80.8986C74.9974-75.9397 73.2986-69.5987 68.3397-66.7355C68.3393-66.7352 68.3388-66.735 68.3384-66.7347L14.4651-35.6307L14.4651-35.6307C9.50626-32.7675 3.16524-34.4664 0.302038-39.4252C0.301782-39.4257 0.301525-39.4261 0.301269-39.4266L0.301269-39.4266L0.301269-39.4266C-2.56193-44.3854-0.863072-50.7264 4.09578-53.5896C4.09622-53.5899 4.09666-53.5901 4.09711-53.5904ZM17.9211-29.6461L44.8606-45.1981L44.8606-45.1981C49.8187-48.0577 56.1561-46.3586 59.0187-41.4022L59.0187-41.4022L59.0187-41.4022C61.8832-36.4444 60.1863-30.1031 55.2286-27.2384L28.2891-11.6864L28.2891-11.6864C23.3303-8.8232 16.9892-10.5221 14.126-15.4809C14.1258-15.4814 14.1255-15.4818 14.1253-15.4822L14.1253-15.4822L14.1253-15.4822C11.2621-20.4411 12.9609-26.7821 17.9198-29.6453C17.9202-29.6456 17.9207-29.6458 17.9211-29.6461ZM31.7451-5.70176L31.7451-5.70176L31.7451-5.70176C36.704-8.56496 43.045-6.8661 45.9082-1.90725C45.9084-1.90681 45.9087-1.90636 45.9089-1.90592L45.9089-1.90592L45.9089-1.90592C48.7721 3.05293 47.0733 9.39395 42.1144 12.2572C42.114 12.2574 42.1136 12.2577 42.1131 12.2579L42.1131 12.2579L42.1131 12.2579C37.1543 15.1211 30.8132 13.4223 27.95 8.46341C27.9498 8.46297 27.9495 8.46252 27.9493 8.46208L27.9493 8.46208L27.9493 8.46208C25.0861 3.50323 26.7849-2.83779 31.7438-5.70099C31.7442-5.70125 31.7447-5.7015 31.7451-5.70176Z"/>
  </g>
  <g id="Light-L" transform="matrix(1 0 0 1 1115.92 1556)">
   <path class="monochrome-0 multicolor-0:tintColor hierarchical-0:primary SFSymbolsPreviewWireframe" d="M4.09711-53.5904L57.9704-84.6944L57.9704-84.6944C62.9292-87.5576 69.2703-85.8587 72.1335-80.8999C72.1337-80.8994 72.134-80.899 72.1342-80.8986L72.1342-80.8986L72.1342-80.8986C74.9974-75.9397 73.2986-69.5987 68.3397-66.7355C68.3393-66.7352 68.3388-66.735 68.3384-66.7347L14.4651-35.6307L14.4651-35.6307C9.50626-32.7675 3.16524-34.4664 0.302038-39.4252C0.301782-39.4257 0.301525-39.4261 0.301269-39.4266L0.301269-39.4266L0.301269-39.4266C-2.56193-44.3854-0.863072-50.7264 4.09578-53.5896C4.09622-53.5899 4.09666-53.5901 4.09711-53.5904ZM17.9211-29.6461L44.8606-45.1981L44.8606-45.1981C49.8187-48.0577 56.1561-46.3586 59.0187-41.4022L59.0187-41.4022L59.0187-41.4022C61.8832-36.4444 60.1863-30.1031 55.2286-27.2384L28.2891-11.6864L28.2891-11.6864C23.3303-8.8232 16.9892-10.5221 14.126-15.4809C14.1258-15.4814 14.1255-15.4818 14.1253-15.4822L14.1253-15.4822L14.1253-15.4822C11.2621-20.4411 12.9609-26.7821 17.9198-29.6453C17.9202-29.6456 17.9207-29.6458 17.9211-29.6461ZM31.7451-5.70176L31.7451-5.70176L31.7451-5.70176C36.704-8.56496 43.045-6.8661 45.9082-1.90725C45.9084-1.90681 45.9087-1.90636 45.9089-1.90592L45.9089-1.90592L45.9089-1.90592C48.7721 3.05293 47.0733 9.39395 42.1144 12.2572C42.114 12.2574 42.1136 12.2577 42.1131 12.2579L42.1131 12.2579L42.1131 12.2579C37.1543 15.1211 30.8132 13.4223 27.95 8.46341C27.9498 8.46297 27.9495 8.46252 27.9493 8.46208L27.9493 8.46208L27.9493 8.46208C25.0861 3.50323 26.7849-2.83779 31.7438-5.70099C31.7442-5.70125 31.7447-5.7015 31.7451-5.70176Z"/>
  </g>
  <g id="Thin-L" transform="matrix(1 0 0 1 819.211 1556)">
   <path class="monochrome-0 multicolor-0:tintColor hierarchical-0:primary SFSymbolsPreviewWireframe" d="M4.09711-53.5904L57.9704-84.6944L57.9704-84.6944C62.9292-87.5576 69.2703-85.8587 72.1335-80.8999C72.1337-80.8994 72.134-80.899 72.1342-80.8986L72.1342-80.8986L72.1342-80.8986C74.9974-75.9397 73.2986-69.5987 68.3397-66.7355C68.3393-66.7352 68.3388-66.735 68.3384-66.7347L14.4651-35.6307L14.4651-35.6307C9.50626-32.7675 3.16524-34.4664 0.302038-39.4252C0.301782-39.4257 0.301525-39.4261 0.301269-39.4266L0.301269-39.4266L0.301269-39.4266C-2.56193-44.3854-0.863072-50.7264 4.09578-53.5896C4.09622-53.5899 4.09666-53.5901 4.09711-53.5904ZM17.9211-29.6461L44.8606-45.1981L44.8606-45.1981C49.8187-48.0577 56.1561-46.3586 59.0187-41.4022L59.0187-41.4022L59.0187-41.4022C61.8832-36.4444 60.1863-30.1031 55.2286-27.2384L28.2891-11.6864L28.2891-11.6864C23.3303-8.8232 16.9892-10.5221 14.126-15.4809C14.1258-15.4814 14.1255-15.4818 14.1253-15.4822L14.1253-15.4822L14.1253-15.4822C11.2621-20.4411 12.9609-26.7821 17.9198-29.6453C17.9202-29.6456 17.9207-29.6458 17.9211-29.6461ZM31.7451-5.70176L31.7451-5.70176L31.7451-5.70176C36.704-8.56496 43.045-6.8661 45.9082-1.90725C45.9084-1.90681 45.9087-1.90636 45.9089-1.90592L45.9089-1.90592L45.9089-1.90592C48.7721 3.05293 47.0733 9.39395 42.1144 12.2572C42.114 12.2574 42.1136 12.2577 42.1131 12.2579L42.1131 12.2579L42.1131 12.2579C37.1543 15.1211 30.8132 13.4223 27.95 8.46341C27.9498 8.46297 27.9495 8.46252 27.9493 8.46208L27.9493 8.46208L27.9493 8.46208C25.0861 3.50323 26.7849-2.83779 31.7438-5.70099C31.7442-5.70125 31.7447-5.7015 31.7451-5.70176Z"/>
  </g>
  <g id="Ultralight-L" transform="matrix(1 0 0 1 522.5 1556)">
   <path class="monochrome-0 multicolor-0:tintColor hierarchical-0:primary SFSymbolsPreviewWireframe" d="M4.09711-53.5904L57.9704-84.6944L57.9704-84.6944C62.9292-87.5576 69.2703-85.8587 72.1335-80.8999C72.1337-80.8994 72.134-80.899 72.1342-80.8986L72.1342-80.8986L72.1342-80.8986C74.9974-75.9397 73.2986-69.5987 68.3397-66.7355C68.3393-66.7352 68.3388-66.735 68.3384-66.7347L14.4651-35.6307L14.4651-35.6307C9.50626-32.7675 3.16524-34.4664 0.302038-39.4252C0.301782-39.4257 0.301525-39.4261 0.301269-39.4266L0.301269-39.4266L0.301269-39.4266C-2.56193-44.3854-0.863072-50.7264 4.09578-53.5896C4.09622-53.5899 4.09666-53.5901 4.09711-53.5904ZM17.9211-29.6461L44.8606-45.1981L44.8606-45.1981C49.8187-48.0577 56.1561-46.3586 59.0187-41.4022L59.0187-41.4022L59.0187-41.4022C61.8832-36.4444 60.1863-30.1031 55.2286-27.2384L28.2891-11.6864L28.2891-11.6864C23.3303-8.8232 16.9892-10.5221 14.126-15.4809C14.1258-15.4814 14.1255-15.4818 14.1253-15.4822L14.1253-15.4822L14.1253-15.4822C11.2621-20.4411 12.9609-26.7821 17.9198-29.6453C17.9202-29.6456 17.9207-29.6458 17.9211-29.6461ZM31.7451-5.70176L31.7451-5.70176L31.7451-5.70176C36.704-8.56496 43.045-6.8661 45.9082-1.90725C45.9084-1.90681 45.9087-1.90636 45.9089-1.90592L45.9089-1.90592L45.9089-1.90592C48.7721 3.05293 47.0733 9.39395 42.1144 12.2572C42.114 12.2574 42.1136 12.2577 42.1131 12.2579L42.1131 12.2579L42.1131 12.2579C37.1543 15.1211 30.8132 13.4223 27.95 8.46341C27.9498 8.46297 27.9495 8.46252 27.9493 8.46208L27.9493 8.46208L27.9493 8.46208C25.0861 3.50323 26.7849-2.83779 31.7438-5.70099C31.7442-5.70125 31.7447-5.7015 31.7451-5.70176Z"/>
  </g>
  <g id="Black-M" transform="matrix(1 0 0 1 2904.35 1126)">
   <path class="monochrome-0 multicolor-0:tintColor hierarchical-0:primary SFSymbolsPreviewWireframe" d="M2.9625-48.88L45.051-73.18L45.051-73.18C48.9251-75.4169 53.879-74.0896 56.1159-70.2155C56.1161-70.2152 56.1163-70.2148 56.1165-70.2145L56.1165-70.2145L56.1165-70.2145C58.3534-66.3404 57.0261-61.3865 53.152-59.1496C53.1517-59.1494 53.1513-59.1492 53.151-59.149L11.0625-34.849L11.0625-34.849C7.1884-32.6121 2.23448-33.9394-0.00239879-37.8135C-0.00259922-37.8138-0.00279962-37.8142-0.003-37.8145L-0.003-37.8145L-0.003-37.8145C-2.23987-41.6886-0.912641-46.6425 2.96146-48.8794C2.96181-48.8796 2.96215-48.8798 2.9625-48.88ZM13.7625-30.1735L34.809-42.3235L34.809-42.3235C38.6825-44.5575 43.6336-43.2301 45.87-39.358L45.87-39.358L45.87-39.358C48.1079-35.4847 46.7822-30.5306 42.909-28.2925L21.8625-16.1425L21.8625-16.1425C17.9884-13.9056 13.0345-15.2329 10.7976-19.107C10.7974-19.1073 10.7972-19.1077 10.797-19.108L10.797-19.108L10.797-19.108C8.56013-22.9821 9.88736-27.936 13.7615-30.1729C13.7618-30.1731 13.7622-30.1733 13.7625-30.1735ZM24.5625-11.467L24.5625-11.467L24.5625-11.467C28.4366-13.7039 33.3905-12.3766 35.6274-8.50254C35.6276-8.50219 35.6278-8.50185 35.628-8.5015L35.628-8.5015L35.628-8.5015C37.8649-4.6274 36.5376 0.326524 32.6635 2.5634C32.6632 2.5636 32.6628 2.5638 32.6625 2.564L32.6625 2.564L32.6625 2.564C28.7884 4.80087 23.8345 3.47364 21.5976-0.400459C21.5974-0.400806 21.5972-0.401153 21.597-0.4015L21.597-0.4015L21.597-0.4015C19.3601-4.2756 20.6874-9.22952 24.5615-11.4664C24.5618-11.4666 24.5622-11.4668 24.5625-11.467Z"/>
  </g>
  <g id="Heavy-M" transform="matrix(1 0 0 1 2607.64 1126)">
   <path class="monochrome-0 multicolor-0:tintColor hierarchical-0:primary SFSymbolsPreviewWireframe" d="M2.9625-48.88L45.051-73.18L45.051-73.18C48.9251-75.4169 53.879-74.0896 56.1159-70.2155C56.1161-70.2152 56.1163-70.2148 56.1165-70.2145L56.1165-70.2145L56.1165-70.2145C58.3534-66.3404 57.0261-61.3865 53.152-59.1496C53.1517-59.1494 53.1513-59.1492 53.151-59.149L11.0625-34.849L11.0625-34.849C7.1884-32.6121 2.23448-33.9394-0.00239879-37.8135C-0.00259922-37.8138-0.00279962-37.8142-0.003-37.8145L-0.003-37.8145L-0.003-37.8145C-2.23987-41.6886-0.912641-46.6425 2.96146-48.8794C2.96181-48.8796 2.96215-48.8798 2.9625-48.88ZM13.7625-30.1735L34.809-42.3235L34.809-42.3235C38.6825-44.5575 43.6336-43.2301 45.87-39.358L45.87-39.358L45.87-39.358C48.1079-35.4847 46.7822-30.5306 42.909-28.2925L21.8625-16.1425L21.8625-16.1425C17.9884-13.9056 13.0345-15.2329 10.7976-19.107C10.7974-19.1073 10.7972-19.1077 10.797-19.108L10.797-19.108L10.797-19.108C8.56013-22.9821 9.88736-27.936 13.7615-30.1729C13.7618-30.1731 13.7622-30.1733 13.7625-30.1735ZM24.5625-11.467L24.5625-11.467L24.5625-11.467C28.4366-13.7039 33.3905-12.3766 35.6274-8.50254C35.6276-8.50219 35.6278-8.50185 35.628-8.5015L35.628-8.5015L35.628-8.5015C37.8649-4.6274 36.5376 0.326524 32.6635 2.5634C32.6632 2.5636 32.6628 2.5638 32.6625 2.564L32.6625 2.564L32.6625 2.564C28.7884 4.80087 23.8345 3.47364 21.5976-0.400459C21.5974-0.400806 21.5972-0.401153 21.597-0.4015L21.597-0.4015L21.597-0.4015C19.3601-4.2756 20.6874-9.22952 24.5615-11.4664C24.5618-11.4666 24.5622-11.4668 24.5625-11.467Z"/>
  </g>
  <g id="Bold-M" transform="matrix(1 0 0 1 2310.93 1126)">
   <path class="monochrome-0 multicolor-0:tintColor hierarchical-0:primary SFSymbolsPreviewWireframe" d="M2.9625-48.88L45.051-73.18L45.051-73.18C48.9251-75.4169 53.879-74.0896 56.1159-70.2155C56.1161-70.2152 56.1163-70.2148 56.1165-70.2145L56.1165-70.2145L56.1165-70.2145C58.3534-66.3404 57.0261-61.3865 53.152-59.1496C53.1517-59.1494 53.1513-59.1492 53.151-59.149L11.0625-34.849L11.0625-34.849C7.1884-32.6121 2.23448-33.9394-0.00239879-37.8135C-0.00259922-37.8138-0.00279962-37.8142-0.003-37.8145L-0.003-37.8145L-0.003-37.8145C-2.23987-41.6886-0.912641-46.6425 2.96146-48.8794C2.96181-48.8796 2.96215-48.8798 2.9625-48.88ZM13.7625-30.1735L34.809-42.3235L34.809-42.3235C38.6825-44.5575 43.6336-43.2301 45.87-39.358L45.87-39.358L45.87-39.358C48.1079-35.4847 46.7822-30.5306 42.909-28.2925L21.8625-16.1425L21.8625-16.1425C17.9884-13.9056 13.0345-15.2329 10.7976-19.107C10.7974-19.1073 10.7972-19.1077 10.797-19.108L10.797-19.108L10.797-19.108C8.56013-22.9821 9.88736-27.936 13.7615-30.1729C13.7618-30.1731 13.7622-30.1733 13.7625-30.1735ZM24.5625-11.467L24.5625-11.467L24.5625-11.467C28.4366-13.7039 33.3905-12.3766 35.6274-8.50254C35.6276-8.50219 35.6278-8.50185 35.628-8.5015L35.628-8.5015L35.628-8.5015C37.8649-4.6274 36.5376 0.326524 32.6635 2.5634C32.6632 2.5636 32.6628 2.5638 32.6625 2.564L32.6625 2.564L32.6625 2.564C28.7884 4.80087 23.8345 3.47364 21.5976-0.400459C21.5974-0.400806 21.5972-0.401153 21.597-0.4015L21.597-0.4015L21.597-0.4015C19.3601-4.2756 20.6874-9.22952 24.5615-11.4664C24.5618-11.4666 24.5622-11.4668 24.5625-11.467Z"/>
  </g>
  <g id="Semibold-M" transform="matrix(1 0 0 1 2014.22 1126)">
   <path class="monochrome-0 multicolor-0:tintColor hierarchical-0:primary SFSymbolsPreviewWireframe" d="M2.9625-48.88L45.051-73.18L45.051-73.18C48.9251-75.4169 53.879-74.0896 56.1159-70.2155C56.1161-70.2152 56.1163-70.2148 56.1165-70.2145L56.1165-70.2145L56.1165-70.2145C58.3534-66.3404 57.0261-61.3865 53.152-59.1496C53.1517-59.1494 53.1513-59.1492 53.151-59.149L11.0625-34.849L11.0625-34.849C7.1884-32.6121 2.23448-33.9394-0.00239879-37.8135C-0.00259922-37.8138-0.00279962-37.8142-0.003-37.8145L-0.003-37.8145L-0.003-37.8145C-2.23987-41.6886-0.912641-46.6425 2.96146-48.8794C2.96181-48.8796 2.96215-48.8798 2.9625-48.88ZM13.7625-30.1735L34.809-42.3235L34.809-42.3235C38.6825-44.5575 43.6336-43.2301 45.87-39.358L45.87-39.358L45.87-39.358C48.1079-35.4847 46.7822-30.5306 42.909-28.2925L21.8625-16.1425L21.8625-16.1425C17.9884-13.9056 13.0345-15.2329 10.7976-19.107C10.7974-19.1073 10.7972-19.1077 10.797-19.108L10.797-19.108L10.797-19.108C8.56013-22.9821 9.88736-27.936 13.7615-30.1729C13.7618-30.1731 13.7622-30.1733 13.7625-30.1735ZM24.5625-11.467L24.5625-11.467L24.5625-11.467C28.4366-13.7039 33.3905-12.3766 35.6274-8.50254C35.6276-8.50219 35.6278-8.50185 35.628-8.5015L35.628-8.5015L35.628-8.5015C37.8649-4.6274 36.5376 0.326524 32.6635 2.5634C32.6632 2.5636 32.6628 2.5638 32.6625 2.564L32.6625 2.564L32.6625 2.564C28.7884 4.80087 23.8345 3.47364 21.5976-0.400459C21.5974-0.400806 21.5972-0.401153 21.597-0.4015L21.597-0.4015L21.597-0.4015C19.3601-4.2756 20.6874-9.22952 24.5615-11.4664C24.5618-11.4666 24.5622-11.4668 24.5625-11.467Z"/>
  </g>
  <g id="Medium-M" transform="matrix(1 0 0 1 1717.51 1126)">
   <path class="monochrome-0 multicolor-0:tintColor hierarchical-0:primary SFSymbolsPreviewWireframe" d="M2.9625-48.88L45.051-73.18L45.051-73.18C48.9251-75.4169 53.879-74.0896 56.1159-70.2155C56.1161-70.2152 56.1163-70.2148 56.1165-70.2145L56.1165-70.2145L56.1165-70.2145C58.3534-66.3404 57.0261-61.3865 53.152-59.1496C53.1517-59.1494 53.1513-59.1492 53.151-59.149L11.0625-34.849L11.0625-34.849C7.1884-32.6121 2.23448-33.9394-0.00239879-37.8135C-0.00259922-37.8138-0.00279962-37.8142-0.003-37.8145L-0.003-37.8145L-0.003-37.8145C-2.23987-41.6886-0.912641-46.6425 2.96146-48.8794C2.96181-48.8796 2.96215-48.8798 2.9625-48.88ZM13.7625-30.1735L34.809-42.3235L34.809-42.3235C38.6825-44.5575 43.6336-43.2301 45.87-39.358L45.87-39.358L45.87-39.358C48.1079-35.4847 46.7822-30.5306 42.909-28.2925L21.8625-16.1425L21.8625-16.1425C17.9884-13.9056 13.0345-15.2329 10.7976-19.107C10.7974-19.1073 10.7972-19.1077 10.797-19.108L10.797-19.108L10.797-19.108C8.56013-22.9821 9.88736-27.936 13.7615-30.1729C13.7618-30.1731 13.7622-30.1733 13.7625-30.1735ZM24.5625-11.467L24.5625-11.467L24.5625-11.467C28.4366-13.7039 33.3905-12.3766 35.6274-8.50254C35.6276-8.50219 35.6278-8.50185 35.628-8.5015L35.628-8.5015L35.628-8.5015C37.8649-4.6274 36.5376 0.326524 32.6635 2.5634C32.6632 2.5636 32.6628 2.5638 32.6625 2.564L32.6625 2.564L32.6625 2.564C28.7884 4.80087 23.8345 3.47364 21.5976-0.400459C21.5974-0.400806 21.5972-0.401153 21.597-0.4015L21.597-0.4015L21.597-0.4015C19.3601-4.2756 20.6874-9.22952 24.5615-11.4664C24.5618-11.4666 24.5622-11.4668 24.5625-11.467Z"/>
  </g>
  <g id="Regular-M" transform="matrix(1 0 0 1 1420.79 1126)">
   <path class="monochrome-0 multicolor-0:tintColor hierarchical-0:primary SFSymbolsPreviewWireframe" d="M2.9625-48.88L45.051-73.18L45.051-73.18C48.9251-75.4169 53.879-74.0896 56.1159-70.2155C56.1161-70.2152 56.1163-70.2148 56.1165-70.2145L56.1165-70.2145L56.1165-70.2145C58.3534-66.3404 57.0261-61.3865 53.152-59.1496C53.1517-59.1494 53.1513-59.1492 53.151-59.149L11.0625-34.849L11.0625-34.849C7.1884-32.6121 2.23448-33.9394-0.00239879-37.8135C-0.00259922-37.8138-0.00279962-37.8142-0.003-37.8145L-0.003-37.8145L-0.003-37.8145C-2.23987-41.6886-0.912641-46.6425 2.96146-48.8794C2.96181-48.8796 2.96215-48.8798 2.9625-48.88ZM13.7625-30.1735L34.809-42.3235L34.809-42.3235C38.6825-44.5575 43.6336-43.2301 45.87-39.358L45.87-39.358L45.87-39.358C48.1079-35.4847 46.7822-30.5306 42.909-28.2925L21.8625-16.1425L21.8625-16.1425C17.9884-13.9056 13.0345-15.2329 10.7976-19.107C10.7974-19.1073 10.7972-19.1077 10.797-19.108L10.797-19.108L10.797-19.108C8.56013-22.9821 9.88736-27.936 13.7615-30.1729C13.7618-30.1731 13.7622-30.1733 13.7625-30.1735ZM24.5625-11.467L24.5625-11.467L24.5625-11.467C28.4366-13.7039 33.3905-12.3766 35.6274-8.50254C35.6276-8.50219 35.6278-8.50185 35.628-8.5015L35.628-8.5015L35.628-8.5015C37.8649-4.6274 36.5376 0.326524 32.6635 2.5634C32.6632 2.5636 32.6628 2.5638 32.6625 2.564L32.6625 2.564L32.6625 2.564C28.7884 4.80087 23.8345 3.47364 21.5976-0.400459C21.5974-0.400806 21.5972-0.401153 21.597-0.4015L21.597-0.4015L21.597-0.4015C19.3601-4.2756 20.6874-9.22952 24.5615-11.4664C24.5618-11.4666 24.5622-11.4668 24.5625-11.467Z"/>
  </g>
  <g id="Light-M" transform="matrix(1 0 0 1 1124.08 1126)">
   <path class="monochrome-0 multicolor-0:tintColor hierarchical-0:primary SFSymbolsPreviewWireframe" d="M2.9625-48.88L45.051-73.18L45.051-73.18C48.9251-75.4169 53.879-74.0896 56.1159-70.2155C56.1161-70.2152 56.1163-70.2148 56.1165-70.2145L56.1165-70.2145L56.1165-70.2145C58.3534-66.3404 57.0261-61.3865 53.152-59.1496C53.1517-59.1494 53.1513-59.1492 53.151-59.149L11.0625-34.849L11.0625-34.849C7.1884-32.6121 2.23448-33.9394-0.00239879-37.8135C-0.00259922-37.8138-0.00279962-37.8142-0.003-37.8145L-0.003-37.8145L-0.003-37.8145C-2.23987-41.6886-0.912641-46.6425 2.96146-48.8794C2.96181-48.8796 2.96215-48.8798 2.9625-48.88ZM13.7625-30.1735L34.809-42.3235L34.809-42.3235C38.6825-44.5575 43.6336-43.2301 45.87-39.358L45.87-39.358L45.87-39.358C48.1079-35.4847 46.7822-30.5306 42.909-28.2925L21.8625-16.1425L21.8625-16.1425C17.9884-13.9056 13.0345-15.2329 10.7976-19.107C10.7974-19.1073 10.7972-19.1077 10.797-19.108L10.797-19.108L10.797-19.108C8.56013-22.9821 9.88736-27.936 13.7615-30.1729C13.7618-30.1731 13.7622-30.1733 13.7625-30.1735ZM24.5625-11.467L24.5625-11.467L24.5625-11.467C28.4366-13.7039 33.3905-12.3766 35.6274-8.50254C35.6276-8.50219 35.6278-8.50185 35.628-8.5015L35.628-8.5015L35.628-8.5015C37.8649-4.6274 36.5376 0.326524 32.6635 2.5634C32.6632 2.5636 32.6628 2.5638 32.6625 2.564L32.6625 2.564L32.6625 2.564C28.7884 4.80087 23.8345 3.47364 21.5976-0.400459C21.5974-0.400806 21.5972-0.401153 21.597-0.4015L21.597-0.4015L21.597-0.4015C19.3601-4.2756 20.6874-9.22952 24.5615-11.4664C24.5618-11.4666 24.5622-11.4668 24.5625-11.467Z"/>
  </g>
  <g id="Thin-M" transform="matrix(1 0 0 1 827.372 1126)">
   <path class="monochrome-0 multicolor-0:tintColor hierarchical-0:primary SFSymbolsPreviewWireframe" d="M2.9625-48.88L45.051-73.18L45.051-73.18C48.9251-75.4169 53.879-74.0896 56.1159-70.2155C56.1161-70.2152 56.1163-70.2148 56.1165-70.2145L56.1165-70.2145L56.1165-70.2145C58.3534-66.3404 57.0261-61.3865 53.152-59.1496C53.1517-59.1494 53.1513-59.1492 53.151-59.149L11.0625-34.849L11.0625-34.849C7.1884-32.6121 2.23448-33.9394-0.00239879-37.8135C-0.00259922-37.8138-0.00279962-37.8142-0.003-37.8145L-0.003-37.8145L-0.003-37.8145C-2.23987-41.6886-0.912641-46.6425 2.96146-48.8794C2.96181-48.8796 2.96215-48.8798 2.9625-48.88ZM13.7625-30.1735L34.809-42.3235L34.809-42.3235C38.6825-44.5575 43.6336-43.2301 45.87-39.358L45.87-39.358L45.87-39.358C48.1079-35.4847 46.7822-30.5306 42.909-28.2925L21.8625-16.1425L21.8625-16.1425C17.9884-13.9056 13.0345-15.2329 10.7976-19.107C10.7974-19.1073 10.7972-19.1077 10.797-19.108L10.797-19.108L10.797-19.108C8.56013-22.9821 9.88736-27.936 13.7615-30.1729C13.7618-30.1731 13.7622-30.1733 13.7625-30.1735ZM24.5625-11.467L24.5625-11.467L24.5625-11.467C28.4366-13.7039 33.3905-12.3766 35.6274-8.50254C35.6276-8.50219 35.6278-8.50185 35.628-8.5015L35.628-8.5015L35.628-8.5015C37.8649-4.6274 36.5376 0.326524 32.6635 2.5634C32.6632 2.5636 32.6628 2.5638 32.6625 2.564L32.6625 2.564L32.6625 2.564C28.7884 4.80087 23.8345 3.47364 21.5976-0.400459C21.5974-0.400806 21.5972-0.401153 21.597-0.4015L21.597-0.4015L21.597-0.4015C19.3601-4.2756 20.6874-9.22952 24.5615-11.4664C24.5618-11.4666 24.5622-11.4668 24.5625-11.467Z"/>
  </g>
  <g id="Ultralight-M" transform="matrix(1 0 0 1 530.661 1126)">
   <path class="monochrome-0 multicolor-0:tintColor hierarchical-0:primary SFSymbolsPreviewWireframe" d="M2.9625-48.88L45.051-73.18L45.051-73.18C48.9251-75.4169 53.879-74.0896 56.1159-70.2155C56.1161-70.2152 56.1163-70.2148 56.1165-70.2145L56.1165-70.2145L56.1165-70.2145C58.3534-66.3404 57.0261-61.3865 53.152-59.1496C53.1517-59.1494 53.1513-59.1492 53.151-59.149L11.0625-34.849L11.0625-34.849C7.1884-32.6121 2.23448-33.9394-0.00239879-37.8135C-0.00259922-37.8138-0.00279962-37.8142-0.003-37.8145L-0.003-37.8145L-0.003-37.8145C-2.23987-41.6886-0.912641-46.6425 2.96146-48.8794C2.96181-48.8796 2.96215-48.8798 2.9625-48.88ZM13.7625-30.1735L34.809-42.3235L34.809-42.3235C38.6825-44.5575 43.6336-43.2301 45.87-39.358L45.87-39.358L45.87-39.358C48.1079-35.4847 46.7822-30.5306 42.909-28.2925L21.8625-16.1425L21.8625-16.1425C17.9884-13.9056 13.0345-15.2329 10.7976-19.107C10.7974-19.1073 10.7972-19.1077 10.797-19.108L10.797-19.108L10.797-19.108C8.56013-22.9821 9.88736-27.936 13.7615-30.1729C13.7618-30.1731 13.7622-30.1733 13.7625-30.1735ZM24.5625-11.467L24.5625-11.467L24.5625-11.467C28.4366-13.7039 33.3905-12.3766 35.6274-8.50254C35.6276-8.50219 35.6278-8.50185 35.628-8.5015L35.628-8.5015L35.628-8.5015C37.8649-4.6274 36.5376 0.326524 32.6635 2.5634C32.6632 2.5636 32.6628 2.5638 32.6625 2.564L32.6625 2.564L32.6625 2.564C28.7884 4.80087 23.8345 3.47364 21.5976-0.400459C21.5974-0.400806 21.5972-0.401153 21.597-0.4015L21.597-0.4015L21.597-0.4015C19.3601-4.2756 20.6874-9.22952 24.5615-11.4664C24.5618-11.4666 24.5622-11.4668 24.5625-11.467Z"/>
  </g>
  <g id="Black-S" transform="matrix(1 0 0 1 2910.44 696)">
   <path class="monochrome-0 multicolor-0:tintColor hierarchical-0:primary SFSymbolsPreviewWireframe" d="M2.11605-46.1024L35.4127-65.3264L35.4127-65.3264C38.4776-67.096 42.3967-66.046 44.1663-62.9812C44.1664-62.9809 44.1666-62.9806 44.1668-62.9804L44.1668-62.9804L44.1668-62.9804C45.9364-59.9155 44.8864-55.9964 41.8215-54.2268C41.8213-54.2266 41.821-54.2265 41.8207-54.2263L8.52405-35.0023L8.52405-35.0023C5.4592-33.2327 1.5401-34.2827-0.229518-37.3475C-0.229677-37.3478-0.229836-37.3481-0.229994-37.3484L-0.229994-37.3484L-0.229994-37.3484C-1.99961-40.4132-0.949622-44.3323 2.11522-46.1019C2.1155-46.1021 2.11577-46.1022 2.11605-46.1024ZM10.66-31.3035L27.3102-40.9155L27.3102-40.9155C30.3745-42.6829 34.2914-41.6327 36.0606-38.5694L36.0606-38.5694L36.0606-38.5694C37.831-35.5052 36.7823-31.586 33.7182-29.8154L17.068-20.2034L17.068-20.2034C14.0032-18.4338 10.0841-19.4838 8.31448-22.5486C8.31432-22.5489 8.31416-22.5492 8.31401-22.5494L8.31401-22.5494L8.31401-22.5494C6.54439-25.6143 7.59438-29.5334 10.6592-31.303C10.6595-31.3032 10.6598-31.3033 10.66-31.3035ZM19.204-16.5046L19.204-16.5046L19.204-16.5046C22.2689-18.2742 26.188-17.2242 27.9576-14.1593C27.9578-14.1591 27.9579-14.1588 27.9581-14.1585L27.9581-14.1585L27.9581-14.1585C29.7277-11.0937 28.6777-7.17457 25.6129-5.40496C25.6126-5.4048 25.6123-5.40464 25.612-5.40448L25.612-5.40448L25.612-5.40448C22.5472-3.63486 18.6281-4.68485 16.8585-7.7497C16.8583-7.74997 16.8582-7.75025 16.858-7.75052L16.858-7.75052L16.858-7.75052C15.0884-10.8154 16.1384-14.7345 19.2032-16.5041C19.2035-16.5042 19.2038-16.5044 19.204-16.5046Z"/>
  </g>
  <g id="Heavy-S" transform="matrix(1 0 0 1 2613.73 696)">
   <path class="monochrome-0 multicolor-0:tintColor hierarchical-0:primary SFSymbolsPreviewWireframe" d="M2.11605-46.1024L35.4127-65.3264L35.4127-65.3264C38.4776-67.096 42.3967-66.046 44.1663-62.9812C44.1664-62.9809 44.1666-62.9806 44.1668-62.9804L44.1668-62.9804L44.1668-62.9804C45.9364-59.9155 44.8864-55.9964 41.8215-54.2268C41.8213-54.2266 41.821-54.2265 41.8207-54.2263L8.52405-35.0023L8.52405-35.0023C5.4592-33.2327 1.5401-34.2827-0.229518-37.3475C-0.229677-37.3478-0.229836-37.3481-0.229994-37.3484L-0.229994-37.3484L-0.229994-37.3484C-1.99961-40.4132-0.949622-44.3323 2.11522-46.1019C2.1155-46.1021 2.11577-46.1022 2.11605-46.1024ZM10.66-31.3035L27.3102-40.9155L27.3102-40.9155C30.3745-42.6829 34.2914-41.6327 36.0606-38.5694L36.0606-38.5694L36.0606-38.5694C37.831-35.5052 36.7823-31.586 33.7182-29.8154L17.068-20.2034L17.068-20.2034C14.0032-18.4338 10.0841-19.4838 8.31448-22.5486C8.31432-22.5489 8.31416-22.5492 8.31401-22.5494L8.31401-22.5494L8.31401-22.5494C6.54439-25.6143 7.59438-29.5334 10.6592-31.303C10.6595-31.3032 10.6598-31.3033 10.66-31.3035ZM19.204-16.5046L19.204-16.5046L19.204-16.5046C22.2689-18.2742 26.188-17.2242 27.9576-14.1593C27.9578-14.1591 27.9579-14.1588 27.9581-14.1585L27.9581-14.1585L27.9581-14.1585C29.7277-11.0937 28.6777-7.17457 25.6129-5.40496C25.6126-5.4048 25.6123-5.40464 25.612-5.40448L25.612-5.40448L25.612-5.40448C22.5472-3.63486 18.6281-4.68485 16.8585-7.7497C16.8583-7.74997 16.8582-7.75025 16.858-7.75052L16.858-7.75052L16.858-7.75052C15.0884-10.8154 16.1384-14.7345 19.2032-16.5041C19.2035-16.5042 19.2038-16.5044 19.204-16.5046Z"/>
  </g>
  <g id="Bold-S" transform="matrix(1 0 0 1 2317.02 696)">
   <path class="monochrome-0 multicolor-0:tintColor hierarchical-0:primary SFSymbolsPreviewWireframe" d="M2.11605-46.1024L35.4127-65.3264L35.4127-65.3264C38.4776-67.096 42.3967-66.046 44.1663-62.9812C44.1664-62.9809 44.1666-62.9806 44.1668-62.9804L44.1668-62.9804L44.1668-62.9804C45.9364-59.9155 44.8864-55.9964 41.8215-54.2268C41.8213-54.2266 41.821-54.2265 41.8207-54.2263L8.52405-35.0023L8.52405-35.0023C5.4592-33.2327 1.5401-34.2827-0.229518-37.3475C-0.229677-37.3478-0.229836-37.3481-0.229994-37.3484L-0.229994-37.3484L-0.229994-37.3484C-1.99961-40.4132-0.949622-44.3323 2.11522-46.1019C2.1155-46.1021 2.11577-46.1022 2.11605-46.1024ZM10.66-31.3035L27.3102-40.9155L27.3102-40.9155C30.3745-42.6829 34.2914-41.6327 36.0606-38.5694L36.0606-38.5694L36.0606-38.5694C37.831-35.5052 36.7823-31.586 33.7182-29.8154L17.068-20.2034L17.068-20.2034C14.0032-18.4338 10.0841-19.4838 8.31448-22.5486C8.31432-22.5489 8.31416-22.5492 8.31401-22.5494L8.31401-22.5494L8.31401-22.5494C6.54439-25.6143 7.59438-29.5334 10.6592-31.303C10.6595-31.3032 10.6598-31.3033 10.66-31.3035ZM19.204-16.5046L19.204-16.5046L19.204-16.5046C22.2689-18.2742 26.188-17.2242 27.9576-14.1593C27.9578-14.1591 27.9579-14.1588 27.9581-14.1585L27.9581-14.1585L27.9581-14.1585C29.7277-11.0937 28.6777-7.17457 25.6129-5.40496C25.6126-5.4048 25.6123-5.40464 25.612-5.40448L25.612-5.40448L25.612-5.40448C22.5472-3.63486 18.6281-4.68485 16.8585-7.7497C16.8583-7.74997 16.8582-7.75025 16.858-7.75052L16.858-7.75052L16.858-7.75052C15.0884-10.8154 16.1384-14.7345 19.2032-16.5041C19.2035-16.5042 19.2038-16.5044 19.204-16.5046Z"/>
  </g>
  <g id="Semibold-S" transform="matrix(1 0 0 1 2020.31 696)">
   <path class="monochrome-0 multicolor-0:tintColor hierarchical-0:primary SFSymbolsPreviewWireframe" d="M2.11605-46.1024L35.4127-65.3264L35.4127-65.3264C38.4776-67.096 42.3967-66.046 44.1663-62.9812C44.1664-62.9809 44.1666-62.9806 44.1668-62.9804L44.1668-62.9804L44.1668-62.9804C45.9364-59.9155 44.8864-55.9964 41.8215-54.2268C41.8213-54.2266 41.821-54.2265 41.8207-54.2263L8.52405-35.0023L8.52405-35.0023C5.4592-33.2327 1.5401-34.2827-0.229518-37.3475C-0.229677-37.3478-0.229836-37.3481-0.229994-37.3484L-0.229994-37.3484L-0.229994-37.3484C-1.99961-40.4132-0.949622-44.3323 2.11522-46.1019C2.1155-46.1021 2.11577-46.1022 2.11605-46.1024ZM10.66-31.3035L27.3102-40.9155L27.3102-40.9155C30.3745-42.6829 34.2914-41.6327 36.0606-38.5694L36.0606-38.5694L36.0606-38.5694C37.831-35.5052 36.7823-31.586 33.7182-29.8154L17.068-20.2034L17.068-20.2034C14.0032-18.4338 10.0841-19.4838 8.31448-22.5486C8.31432-22.5489 8.31416-22.5492 8.31401-22.5494L8.31401-22.5494L8.31401-22.5494C6.54439-25.6143 7.59438-29.5334 10.6592-31.303C10.6595-31.3032 10.6598-31.3033 10.66-31.3035ZM19.204-16.5046L19.204-16.5046L19.204-16.5046C22.2689-18.2742 26.188-17.2242 27.9576-14.1593C27.9578-14.1591 27.9579-14.1588 27.9581-14.1585L27.9581-14.1585L27.9581-14.1585C29.7277-11.0937 28.6777-7.17457 25.6129-5.40496C25.6126-5.4048 25.6123-5.40464 25.612-5.40448L25.612-5.40448L25.612-5.40448C22.5472-3.63486 18.6281-4.68485 16.8585-7.7497C16.8583-7.74997 16.8582-7.75025 16.858-7.75052L16.858-7.75052L16.858-7.75052C15.0884-10.8154 16.1384-14.7345 19.2032-16.5041C19.2035-16.5042 19.2038-16.5044 19.204-16.5046Z"/>
  </g>
  <g id="Medium-S" transform="matrix(1 0 0 1 1723.59 696)">
   <path class="monochrome-0 multicolor-0:tintColor hierarchical-0:primary SFSymbolsPreviewWireframe" d="M2.11605-46.1024L35.4127-65.3264L35.4127-65.3264C38.4776-67.096 42.3967-66.046 44.1663-62.9812C44.1664-62.9809 44.1666-62.9806 44.1668-62.9804L44.1668-62.9804L44.1668-62.9804C45.9364-59.9155 44.8864-55.9964 41.8215-54.2268C41.8213-54.2266 41.821-54.2265 41.8207-54.2263L8.52405-35.0023L8.52405-35.0023C5.4592-33.2327 1.5401-34.2827-0.229518-37.3475C-0.229677-37.3478-0.229836-37.3481-0.229994-37.3484L-0.229994-37.3484L-0.229994-37.3484C-1.99961-40.4132-0.949622-44.3323 2.11522-46.1019C2.1155-46.1021 2.11577-46.1022 2.11605-46.1024ZM10.66-31.3035L27.3102-40.9155L27.3102-40.9155C30.3745-42.6829 34.2914-41.6327 36.0606-38.5694L36.0606-38.5694L36.0606-38.5694C37.831-35.5052 36.7823-31.586 33.7182-29.8154L17.068-20.2034L17.068-20.2034C14.0032-18.4338 10.0841-19.4838 8.31448-22.5486C8.31432-22.5489 8.31416-22.5492 8.31401-22.5494L8.31401-22.5494L8.31401-22.5494C6.54439-25.6143 7.59438-29.5334 10.6592-31.303C10.6595-31.3032 10.6598-31.3033 10.66-31.3035ZM19.204-16.5046L19.204-16.5046L19.204-16.5046C22.2689-18.2742 26.188-17.2242 27.9576-14.1593C27.9578-14.1591 27.9579-14.1588 27.9581-14.1585L27.9581-14.1585L27.9581-14.1585C29.7277-11.0937 28.6777-7.17457 25.6129-5.40496C25.6126-5.4048 25.6123-5.40464 25.612-5.40448L25.612-5.40448L25.612-5.40448C22.5472-3.63486 18.6281-4.68485 16.8585-7.7497C16.8583-7.74997 16.8582-7.75025 16.858-7.75052L16.858-7.75052L16.858-7.75052C15.0884-10.8154 16.1384-14.7345 19.2032-16.5041C19.2035-16.5042 19.2038-16.5044 19.204-16.5046Z"/>
  </g>
  <g id="Regular-S" transform="matrix(1 0 0 1 1426.88 696)">
   <path class="monochrome-0 multicolor-0:tintColor hierarchical-0:primary SFSymbolsPreviewWireframe" d="M2.11605-46.1024L35.4127-65.3264L35.4127-65.3264C38.4776-67.096 42.3967-66.046 44.1663-62.9812C44.1664-62.9809 44.1666-62.9806 44.1668-62.9804L44.1668-62.9804L44.1668-62.9804C45.9364-59.9155 44.8864-55.9964 41.8215-54.2268C41.8213-54.2266 41.821-54.2265 41.8207-54.2263L8.52405-35.0023L8.52405-35.0023C5.4592-33.2327 1.5401-34.2827-0.229518-37.3475C-0.229677-37.3478-0.229836-37.3481-0.229994-37.3484L-0.229994-37.3484L-0.229994-37.3484C-1.99961-40.4132-0.949622-44.3323 2.11522-46.1019C2.1155-46.1021 2.11577-46.1022 2.11605-46.1024ZM10.66-31.3035L27.3102-40.9155L27.3102-40.9155C30.3745-42.6829 34.2914-41.6327 36.0606-38.5694L36.0606-38.5694L36.0606-38.5694C37.831-35.5052 36.7823-31.586 33.7182-29.8154L17.068-20.2034L17.068-20.2034C14.0032-18.4338 10.0841-19.4838 8.31448-22.5486C8.31432-22.5489 8.31416-22.5492 8.31401-22.5494L8.31401-22.5494L8.31401-22.5494C6.54439-25.6143 7.59438-29.5334 10.6592-31.303C10.6595-31.3032 10.6598-31.3033 10.66-31.3035ZM19.204-16.5046L19.204-16.5046L19.204-16.5046C22.2689-18.2742 26.188-17.2242 27.9576-14.1593C27.9578-14.1591 27.9579-14.1588 27.9581-14.1585L27.9581-14.1585L27.9581-14.1585C29.7277-11.0937 28.6777-7.17457 25.6129-5.40496C25.6126-5.4048 25.6123-5.40464 25.612-5.40448L25.612-5.40448L25.612-5.40448C22.5472-3.63486 18.6281-4.68485 16.8585-7.7497C16.8583-7.74997 16.8582-7.75025 16.858-7.75052L16.858-7.75052L16.858-7.75052C15.0884-10.8154 16.1384-14.7345 19.2032-16.5041C19.2035-16.5042 19.2038-16.5044 19.204-16.5046Z"/>
  </g>
  <g id="Light-S" transform="matrix(1 0 0 1 1130.17 696)">
   <path class="monochrome-0 multicolor-0:tintColor hierarchical-0:primary SFSymbolsPreviewWireframe" d="M2.11605-46.1024L35.4127-65.3264L35.4127-65.3264C38.4776-67.096 42.3967-66.046 44.1663-62.9812C44.1664-62.9809 44.1666-62.9806 44.1668-62.9804L44.1668-62.9804L44.1668-62.9804C45.9364-59.9155 44.8864-55.9964 41.8215-54.2268C41.8213-54.2266 41.821-54.2265 41.8207-54.2263L8.52405-35.0023L8.52405-35.0023C5.4592-33.2327 1.5401-34.2827-0.229518-37.3475C-0.229677-37.3478-0.229836-37.3481-0.229994-37.3484L-0.229994-37.3484L-0.229994-37.3484C-1.99961-40.4132-0.949622-44.3323 2.11522-46.1019C2.1155-46.1021 2.11577-46.1022 2.11605-46.1024ZM10.66-31.3035L27.3102-40.9155L27.3102-40.9155C30.3745-42.6829 34.2914-41.6327 36.0606-38.5694L36.0606-38.5694L36.0606-38.5694C37.831-35.5052 36.7823-31.586 33.7182-29.8154L17.068-20.2034L17.068-20.2034C14.0032-18.4338 10.0841-19.4838 8.31448-22.5486C8.31432-22.5489 8.31416-22.5492 8.31401-22.5494L8.31401-22.5494L8.31401-22.5494C6.54439-25.6143 7.59438-29.5334 10.6592-31.303C10.6595-31.3032 10.6598-31.3033 10.66-31.3035ZM19.204-16.5046L19.204-16.5046L19.204-16.5046C22.2689-18.2742 26.188-17.2242 27.9576-14.1593C27.9578-14.1591 27.9579-14.1588 27.9581-14.1585L27.9581-14.1585L27.9581-14.1585C29.7277-11.0937 28.6777-7.17457 25.6129-5.40496C25.6126-5.4048 25.6123-5.40464 25.612-5.40448L25.612-5.40448L25.612-5.40448C22.5472-3.63486 18.6281-4.68485 16.8585-7.7497C16.8583-7.74997 16.8582-7.75025 16.858-7.75052L16.858-7.75052L16.858-7.75052C15.0884-10.8154 16.1384-14.7345 19.2032-16.5041C19.2035-16.5042 19.2038-16.5044 19.204-16.5046Z"/>
  </g>
  <g id="Thin-S" transform="matrix(1 0 0 1 833.461 696)">
   <path class="monochrome-0 multicolor-0:tintColor hierarchical-0:primary SFSymbolsPreviewWireframe" d="M2.11605-46.1024L35.4127-65.3264L35.4127-65.3264C38.4776-67.096 42.3967-66.046 44.1663-62.9812C44.1664-62.9809 44.1666-62.9806 44.1668-62.9804L44.1668-62.9804L44.1668-62.9804C45.9364-59.9155 44.8864-55.9964 41.8215-54.2268C41.8213-54.2266 41.821-54.2265 41.8207-54.2263L8.52405-35.0023L8.52405-35.0023C5.4592-33.2327 1.5401-34.2827-0.229518-37.3475C-0.229677-37.3478-0.229836-37.3481-0.229994-37.3484L-0.229994-37.3484L-0.229994-37.3484C-1.99961-40.4132-0.949622-44.3323 2.11522-46.1019C2.1155-46.1021 2.11577-46.1022 2.11605-46.1024ZM10.66-31.3035L27.3102-40.9155L27.3102-40.9155C30.3745-42.6829 34.2914-41.6327 36.0606-38.5694L36.0606-38.5694L36.0606-38.5694C37.831-35.5052 36.7823-31.586 33.7182-29.8154L17.068-20.2034L17.068-20.2034C14.0032-18.4338 10.0841-19.4838 8.31448-22.5486C8.31432-22.5489 8.31416-22.5492 8.31401-22.5494L8.31401-22.5494L8.31401-22.5494C6.54439-25.6143 7.59438-29.5334 10.6592-31.303C10.6595-31.3032 10.6598-31.3033 10.66-31.3035ZM19.204-16.5046L19.204-16.5046L19.204-16.5046C22.2689-18.2742 26.188-17.2242 27.9576-14.1593C27.9578-14.1591 27.9579-14.1588 27.9581-14.1585L27.9581-14.1585L27.9581-14.1585C29.7277-11.0937 28.6777-7.17457 25.6129-5.40496C25.6126-5.4048 25.6123-5.40464 25.612-5.40448L25.612-5.40448L25.612-5.40448C22.5472-3.63486 18.6281-4.68485 16.8585-7.7497C16.8583-7.74997 16.8582-7.75025 16.858-7.75052L16.858-7.75052L16.858-7.75052C15.0884-10.8154 16.1384-14.7345 19.2032-16.5041C19.2035-16.5042 19.2038-16.5044 19.204-16.5046Z"/>
  </g>
  <g id="Ultralight-S" transform="matrix(1 0 0 1 536.749 696)">
   <path class="monochrome-0 multicolor-0:tintColor hierarchical-0:primary SFSymbolsPreviewWireframe" d="M2.11605-46.1024L35.4127-65.3264L35.4127-65.3264C38.4776-67.096 42.3967-66.046 44.1663-62.9812C44.1664-62.9809 44.1666-62.9806 44.1668-62.9804L44.1668-62.9804L44.1668-62.9804C45.9364-59.9155 44.8864-55.9964 41.8215-54.2268C41.8213-54.2266 41.821-54.2265 41.8207-54.2263L8.52405-35.0023L8.52405-35.0023C5.4592-33.2327 1.5401-34.2827-0.229518-37.3475C-0.229677-37.3478-0.229836-37.3481-0.229994-37.3484L-0.229994-37.3484L-0.229994-37.3484C-1.99961-40.4132-0.949622-44.3323 2.11522-46.1019C2.1155-46.1021 2.11577-46.1022 2.11605-46.1024ZM10.66-31.3035L27.3102-40.9155L27.3102-40.9155C30.3745-42.6829 34.2914-41.6327 36.0606-38.5694L36.0606-38.5694L36.0606-38.5694C37.831-35.5052 36.7823-31.586 33.7182-29.8154L17.068-20.2034L17.068-20.2034C14.0032-18.4338 10.0841-19.4838 8.31448-22.5486C8.31432-22.5489 8.31416-22.5492 8.31401-22.5494L8.31401-22.5494L8.31401-22.5494C6.54439-25.6143 7.59438-29.5334 10.6592-31.303C10.6595-31.3032 10.6598-31.3033 10.66-31.3035ZM19.204-16.5046L19.204-16.5046L19.204-16.5046C22.2689-18.2742 26.188-17.2242 27.9576-14.1593C27.9578-14.1591 27.9579-14.1588 27.9581-14.1585L27.9581-14.1585L27.9581-14.1585C29.7277-11.0937 28.6777-7.17457 25.6129-5.40496C25.6126-5.4048 25.6123-5.40464 25.612-5.40448L25.612-5.40448L25.612-5.40448C22.5472-3.63486 18.6281-4.68485 16.8585-7.7497C16.8583-7.74997 16.8582-7.75025 16.858-7.75052L16.858-7.75052L16.858-7.75052C15.0884-10.8154 16.1384-14.7345 19.2032-16.5041C19.2035-16.5042 19.2038-16.5044 19.204-16.5046Z"/>
  </g>
 </g>
</svg>
